<svg width="120" height="120" viewBox="0 0 120 120" fill="none" xmlns="http://www.w3.org/2000/svg">
<path d="M97.3122 51.4285C96.127 48.1693 94.9418 45.291 90.6243 44.9523C86.9841 44.6137 86.5608 46.6031 86.3069 48.3809C86.0952 51.2169 84.8254 51.6825 83.8095 51.9365C82.2434 52.3174 74.0741 54.2645 74.0741 54.2645L71.8307 54.8148L65.3968 56.3386L57.3122 58.2857C57.3122 58.2857 47.7883 60.5714 45.9682 60.9947C44.6561 61.291 42.7513 61.5449 40.9735 57.9894C40.9312 57.9047 40.8889 57.8624 40.8042 57.7354C40 56.2539 38.8148 56.2116 37.9259 56.6349C37.7143 56.7619 37.545 56.8888 37.3333 57.1005C37.291 57.1428 37.2487 57.1851 37.2487 57.2275C36.4444 58.0317 35.3439 58.6243 34.0741 58.9206C30.8571 59.6825 27.7249 58.1164 27.0899 55.4497C26.455 52.783 28.5291 49.947 31.746 49.1851C31.9577 49.1428 32.1693 49.1005 32.3809 49.0582C32.3809 49.0582 35.9365 48.4656 37.7566 48.6349C38.0529 48.6772 38.3492 48.7619 38.6032 48.8888C42.6667 51.0052 48.0423 50.3703 48.3386 48.8888C49.0159 45.6719 44.4021 42.6666 43.8518 42.3703C43.1746 42.0317 42.7936 41.5661 43.0899 40.9312C44.7831 36.9523 44.1058 33.4391 42.7936 32.1693C41.8201 31.2381 36.5714 34.201 34.7936 38.7301C34.582 39.2381 34.2434 39.7037 33.7778 40C21.7566 48.4656 18.836 62.3915 24.1693 74.2433C29.9682 87.1957 75.6825 84.91 86.2222 80.3386C97.9471 75.8941 100.021 61.6719 97.3122 51.4285Z" fill="#60222B"/>
<path d="M57.1429 29.164C56.127 27.6402 45.8836 31.619 46.5185 39.2804C47.1535 46.9418 58.4127 48.8889 59.2593 46.8571C60.5715 43.8095 56.5926 39.873 56.127 39.4921C55.4921 39.0265 55.2381 38.4762 55.6614 37.8836C58.1588 34.2857 58.1588 30.6878 57.1429 29.164Z" fill="#E6A73D"/>
<path d="M70.9841 28.3598C70.0529 26.7513 59.5555 29.9682 59.6402 37.6719C59.6825 45.3333 70.7724 48.1269 71.7883 46.1799C73.3544 43.2169 69.6719 39.0264 69.2063 38.6031C68.6137 38.0952 68.4021 37.5449 68.8677 36.9523C71.619 33.5661 71.9153 29.9682 70.9841 28.3598Z" fill="#E6A73D"/>
<path d="M77.8836 33.3545C73.9048 33.0582 72.508 35.4286 72.2963 36.6561C72.254 38.7301 74.1588 40.3386 77.7567 40.3809C80.8043 40.4233 84.9948 37.8836 84.9948 36.8677C84.7831 35.5555 81.8625 33.6508 77.8836 33.3545Z" fill="#E6A73D"/>
<path d="M33.5661 26.328C32.3809 24.3809 31.9577 23.6614 30.8148 21.7143C30.8148 21.7143 30.7725 21.6719 30.7725 21.6296C30.7725 21.5873 30.8148 21.545 30.8571 21.545C31.0688 21.5026 31.2381 21.3756 31.3227 21.2063C31.3651 21.0793 31.3651 20.9947 31.3227 20.91C31.2804 20.8254 31.1958 20.7407 31.0688 20.7407C30.9418 20.7407 30.8148 20.7407 30.6878 20.8254C30.0106 21.2063 29.3333 21.6296 28.6561 22.0529C28.5291 22.1375 28.4444 22.2222 28.4021 22.3492C28.3598 22.4762 28.3598 22.5608 28.4021 22.6455C28.4444 22.7301 28.5714 22.7725 28.6984 22.8148C28.8677 22.8148 29.037 22.7301 29.2063 22.6032C29.291 22.5608 29.3333 22.5608 29.3757 22.6032C30.3069 24.127 31.2381 25.6508 32.1693 27.1746C32.1693 27.1746 32.1693 27.2169 32.127 27.2592C31.9577 27.3862 31.746 27.4286 31.7037 27.5979C31.6614 27.7248 31.6614 27.8095 31.746 27.8942C31.7884 27.9788 31.9153 28.0211 32 28.0635C32.127 28.0635 32.254 28.0211 32.3809 27.9365C32.9312 27.5555 33.4815 27.2169 34.0741 26.9206C34.2011 26.8783 34.2857 26.7936 34.328 26.6666C34.3704 26.5397 34.3704 26.455 34.328 26.3704C34.2857 26.2857 34.2011 26.201 34.0741 26.201C33.9048 26.1587 33.7354 26.2434 33.6085 26.3704C33.6085 26.328 33.5661 26.328 33.5661 26.328Z" fill="#5E222A"/>
<path d="M26.5398 23.5344C26.4128 23.5344 26.2858 23.5768 26.1588 23.6614C26.0318 23.7461 25.9048 23.8307 25.7779 23.9154C25.6509 24 25.5662 24.0847 25.5239 24.2117C25.4816 24.3387 25.5239 24.4233 25.6085 24.5503C26.3704 25.6508 27.1747 26.709 27.9366 27.8096C28.0212 27.9365 27.8943 28.0635 27.7673 28.0212C26.2858 27.3863 24.762 26.7937 23.1535 26.2434C23.0689 26.2011 22.9419 26.2011 22.8572 26.2434C22.7302 26.2857 22.6456 26.3281 22.5609 26.4127C22.3493 26.582 22.1376 26.7514 21.926 26.9207C21.799 27.0053 21.7144 27.1323 21.7144 27.2593C21.672 27.3863 21.7144 27.4709 21.799 27.5556C23.1112 29.1217 24.4657 30.6455 25.7779 32.2117C25.8625 32.2963 25.9472 32.3387 26.0741 32.3387C26.2011 32.3387 26.2858 32.2963 26.4128 32.2117C26.5398 32.127 26.6244 32.0424 26.7514 31.9577C26.8361 31.873 26.9207 31.7884 26.963 31.6614C26.963 31.5344 26.9207 31.4498 26.8784 31.3651C26.0318 30.3492 25.2276 29.291 24.381 28.2752C24.2964 28.1482 24.4234 27.9789 24.5503 28.0635C26.0741 28.6138 27.598 29.2064 29.0371 29.8836C29.1218 29.926 29.2064 29.926 29.3334 29.926C29.4181 29.926 29.545 29.8836 29.6297 29.799C29.8413 29.672 30.0107 29.5027 30.2223 29.3757C30.307 29.291 30.3916 29.2064 30.4339 29.0794C30.4763 28.9524 30.4339 28.8678 30.3493 28.7831C29.2064 27.09 28.0212 25.3969 26.8784 23.7037C26.7514 23.6191 26.6667 23.5344 26.5398 23.5344Z" fill="#5E222A"/>
<path d="M46.3916 21.2488C45.418 20.5292 44.4022 19.8519 43.344 19.1747C43.1746 19.09 43.1323 18.8361 43.217 18.6667C43.7249 17.6085 44.2752 16.5927 44.9101 15.5345C44.9524 15.4498 44.9947 15.3652 44.9524 15.2382C44.9101 15.1535 44.8678 15.0689 44.7831 15.0689C44.6985 15.0265 44.5715 15.0689 44.4868 15.0689C44.3175 15.1112 44.1905 15.1535 44.0212 15.1958C43.8096 15.2382 43.6826 15.3652 43.5556 15.5345C43.0477 16.4657 42.6244 17.3969 42.2011 18.3704C42.1588 18.4974 41.9471 18.4974 41.9048 18.3704C41.6932 17.7355 41.4815 17.1006 41.2699 16.4657C41.2276 16.3387 41.1852 16.254 41.0582 16.2117C40.9313 16.1694 40.8043 16.1694 40.6773 16.2117C40.508 16.254 40.3387 16.3387 40.1694 16.381C40.0424 16.4234 39.9154 16.508 39.8731 16.5927C39.8307 16.6773 39.8307 16.8043 39.8731 16.9313C40.5926 18.8361 41.2699 20.7831 41.9895 22.6879C42.0318 22.8149 42.0741 22.8995 42.2011 22.9419C42.2858 22.9842 42.4127 22.9842 42.5397 22.9419C42.6667 22.8995 42.836 22.8572 42.963 22.7726C43.09 22.7302 43.1746 22.6879 43.217 22.5609C43.2593 22.4763 43.2593 22.3493 43.217 22.2223C42.963 21.5027 42.7514 20.8255 42.4974 20.1059C42.4551 19.9789 42.4974 19.8519 42.6667 19.8943C43.5979 20.4869 44.4868 21.0794 45.3757 21.7144C45.545 21.8413 45.7143 21.8413 45.8836 21.799C46.0106 21.7567 46.1376 21.7144 46.2646 21.672C46.3492 21.6297 46.4339 21.5874 46.5186 21.5451C46.6032 21.4604 46.6032 21.3757 46.5609 21.2911C46.5186 21.3757 46.4762 21.2911 46.3916 21.2488Z" fill="#5E222A"/>
<path d="M40.1693 23.3227C39.1111 22.7301 38.0106 22.2221 36.9101 21.6719C36.6984 21.5872 36.6138 21.3332 36.6984 21.1216C37.0794 20.0211 37.5026 18.9205 37.9683 17.8623C38.0106 17.7777 38.0106 17.6507 37.9683 17.566C37.9259 17.4814 37.8836 17.4391 37.7566 17.3967C37.672 17.3967 37.545 17.3967 37.4603 17.4391C37.3333 17.4814 37.164 17.566 37.037 17.6084C36.8254 17.693 36.6984 17.82 36.6138 18.0316C36.2328 19.0052 35.8942 20.0211 35.5979 20.9946C35.5556 21.1216 35.3439 21.1639 35.3016 21.0369C35.0053 20.4443 34.709 19.8518 34.4127 19.2592C34.3704 19.1745 34.2857 19.0899 34.1587 19.0475C34.0317 19.0052 33.9048 19.0475 33.7778 19.1322C33.6085 19.2168 33.4392 19.3015 33.3122 19.3861C33.1852 19.4708 33.1005 19.5555 33.0159 19.6401C32.9735 19.7671 32.9735 19.8518 33.0159 19.9787C33.9471 21.7988 34.8783 23.619 35.8519 25.4391C35.8942 25.5237 35.9788 25.6084 36.1058 25.6507C36.2328 25.693 36.3175 25.6507 36.4444 25.6084C36.5714 25.5237 36.7407 25.4814 36.8677 25.3967C36.9947 25.3544 37.0794 25.2697 37.1217 25.1428C37.164 25.0581 37.164 24.9311 37.0794 24.8041C36.7407 24.1269 36.4444 23.4496 36.1058 22.7724C36.0212 22.6031 36.1058 22.4761 36.1905 22.5184C37.2064 22.984 38.2222 23.492 39.1958 23.9999C39.3651 24.0846 39.5344 24.0846 39.746 23.9999C39.873 23.9576 40 23.8729 40.127 23.8306C40.2116 23.7883 40.2963 23.7459 40.3386 23.6613C40.381 23.5766 40.381 23.492 40.381 23.4073C40.3386 23.4496 40.254 23.365 40.1693 23.3227Z" fill="#5E222A"/>
<path d="M82.836 24.4233C82.0741 24.0423 81.2699 23.7037 80.4657 23.3651C80.381 23.3228 80.3387 23.2381 80.381 23.1535C80.635 22.5609 80.8889 21.9683 81.1429 21.3757C81.1852 21.291 81.2699 21.2487 81.3545 21.291C82.1164 21.5873 82.836 21.9259 83.5556 22.2646C83.6826 22.3069 83.8096 22.3492 83.8942 22.3069C84.0212 22.2646 84.0635 22.2222 84.1482 22.0952C84.1905 22.0106 84.1905 21.8836 84.1482 21.799C84.1059 21.7143 83.9789 21.6296 83.8942 21.545C83.1323 21.2064 82.4127 20.8677 81.6508 20.5291C81.5662 20.4868 81.5238 20.4021 81.5662 20.3175C81.8201 19.6826 82.0741 19.0476 82.3704 18.4127C82.4127 18.3281 82.4974 18.2857 82.5821 18.3281C83.4709 18.709 84.3175 19.09 85.2064 19.5132C85.3334 19.5556 85.4604 19.5979 85.5873 19.5979C85.7143 19.5556 85.799 19.5132 85.8413 19.3863C85.8836 19.3016 85.8836 19.1746 85.8413 19.09C85.799 19.0053 85.672 18.9206 85.545 18.836C84.2752 18.2011 82.963 17.6508 81.6508 17.1429C81.5238 17.1005 81.3969 17.0582 81.2699 17.1005C81.1429 17.1429 81.1006 17.2275 81.0582 17.3122C80.3387 19.2169 79.5768 21.1217 78.8572 23.0265C78.8149 23.1535 78.8149 23.2381 78.8572 23.3651C78.8995 23.4497 78.9842 23.5344 79.1111 23.5767C80.254 24.0423 81.4392 24.5503 82.5397 25.0582C82.6667 25.1005 82.7514 25.1429 82.8783 25.1005C83.0053 25.0582 83.0477 25.0159 83.09 24.8889C83.1323 24.8042 83.1323 24.6773 83.09 24.5926C83.0477 24.5503 82.963 24.4656 82.836 24.4233Z" fill="#5E222A"/>
<path d="M98.2009 27.1747C98.1586 27.09 98.0739 26.963 97.947 26.8784C97.82 26.7937 97.693 26.6667 97.6083 26.5821C97.5237 26.4974 97.439 26.4551 97.3544 26.4128C97.2274 26.3704 97.1427 26.3704 97.0581 26.4128C96.1692 26.7937 95.2803 27.1747 94.4337 27.5979C94.3491 27.6403 94.2644 27.5556 94.2644 27.471C94.4761 26.5397 94.6454 25.6085 94.7724 24.6773C94.7724 24.5927 94.7724 24.4657 94.6877 24.381C94.6454 24.2964 94.5607 24.254 94.4761 24.1694C94.3491 24.0847 94.2221 24.0001 94.0951 23.9154C93.9681 23.8308 93.8411 23.7884 93.7565 23.7461C93.6295 23.7461 93.5449 23.7884 93.4602 23.8731C93.3755 23.9577 93.3755 24.0847 93.3332 24.254C93.1639 25.6932 92.9523 27.09 92.6983 28.4868C92.3173 28.9948 91.9787 29.4181 91.5554 29.926C91.3861 30.0953 91.3015 30.18 91.3438 30.3916C91.3861 30.5186 91.4284 30.6032 91.5131 30.6879C91.6824 30.8149 91.8094 30.9419 91.9787 31.0688C92.0634 31.1535 92.1904 31.1958 92.3173 31.1958C92.4867 31.1535 92.6136 30.9842 92.6983 30.8572C93.1216 30.3069 93.4602 29.8837 93.8835 29.3334C95.1533 28.7831 96.4232 28.2329 97.7353 27.7249C97.82 27.6826 97.9046 27.6403 97.947 27.6403C97.9893 27.5979 98.0316 27.5556 98.0739 27.5556C98.2433 27.3863 98.2433 27.2593 98.2009 27.1747Z" fill="#5E222A"/>
<path d="M88.762 28.0211C88.7197 27.0476 88.635 26.074 88.5504 25.0581C88.5504 25.0158 88.5927 24.9735 88.635 24.9735C89.2276 25.2275 89.7356 25.3121 90.2012 25.3121C90.7514 25.2698 91.1324 25.0581 91.4287 24.6349C91.852 24.0423 91.8943 23.365 91.5133 22.6878C91.1747 22.0105 90.4128 21.3333 89.3123 20.7407C89.143 20.6137 88.9313 20.529 88.7197 20.4021C88.508 20.3174 88.2964 20.1904 88.0424 20.1058C87.9155 20.0634 87.7885 20.0211 87.7038 20.0634C87.5768 20.1058 87.5345 20.1481 87.4498 20.2327C86.4763 22.0528 85.5451 23.873 84.5715 25.6931C84.5292 25.7777 84.5292 25.9047 84.5715 26.0317C84.6139 26.1587 84.6985 26.2433 84.7832 26.2857C84.9102 26.3703 85.0795 26.455 85.2065 26.5396C85.3334 26.5819 85.4181 26.6243 85.5451 26.5819C85.6721 26.5396 85.7567 26.4973 85.7991 26.4126C86.2223 25.6931 86.6033 24.9735 87.0266 24.2539C87.0689 24.1693 87.2382 24.3386 87.2382 24.3809C87.3652 25.4814 87.4498 26.6243 87.5345 27.7248C87.5345 27.8518 87.6192 27.9788 87.7461 28.0634C87.9578 28.1904 88.1694 28.3174 88.3387 28.4444C88.3811 28.4867 88.4657 28.529 88.508 28.529C88.5504 28.529 88.5927 28.529 88.5927 28.529C88.635 28.529 88.635 28.4867 88.6774 28.4867C88.7197 28.4444 88.7197 28.4021 88.7197 28.3174C88.762 28.1904 88.762 28.1058 88.762 28.0211ZM88.635 21.3756C88.6774 21.2909 88.762 21.3333 88.8043 21.3333C88.889 21.3756 88.9737 21.4179 89.016 21.4603C89.7356 21.8835 90.1588 22.2645 90.3282 22.6454C90.4975 22.9841 90.4551 23.365 90.1588 23.873C89.9472 24.2539 89.6509 24.3809 89.3123 24.3809C88.9737 24.3809 88.4657 24.2116 87.8308 23.8306C87.7038 23.746 87.3652 23.619 87.4075 23.492C88.2541 22.0105 87.7885 22.8148 88.635 21.3756Z" fill="#5E222A"/>
<path d="M64.2962 17.1429C64.1269 16.9312 63.873 16.7619 63.5767 16.5926C63.5343 16.5503 63.5343 16.4656 63.5767 16.4656C63.873 16.3386 64.1693 16.2117 64.3386 16.0423C64.5925 15.7884 64.7195 15.4497 64.7619 15.0688C64.8042 14.6878 64.7195 14.3492 64.5079 14.0529C64.2962 13.7566 63.9576 13.5027 63.492 13.291C63.0264 13.1217 62.3915 12.9947 61.5873 12.9524C61.3756 12.9524 61.1216 12.9524 60.8253 12.9524C60.5714 12.9524 60.2751 12.9524 59.9788 12.9947C59.8518 12.9947 59.7248 13.037 59.6402 13.1217C59.5555 13.2064 59.5132 13.291 59.5132 13.418C59.5132 15.4921 59.5555 17.5238 59.5555 19.5979C59.5555 19.7249 59.5978 19.8095 59.6825 19.8942C59.7671 19.9788 59.8941 20.0212 59.9788 20.0212C60.2328 20.0635 60.4867 20.0635 60.6984 20.0635C60.91 20.0635 61.1216 20.1058 61.3333 20.1058C62.0529 20.1058 62.6455 20.0635 63.1111 19.9365C63.5767 19.8095 63.9153 19.5979 64.1693 19.3016C64.4232 19.0053 64.5502 18.6244 64.5925 18.2011C64.6772 17.8201 64.5502 17.4815 64.2962 17.1429ZM62.7724 19.09C62.4761 19.3016 62.0105 19.3863 61.4179 19.3439C61.3333 19.3439 61.2486 19.3439 61.1216 19.3439C61.037 19.3439 60.9523 19.3016 60.9523 19.2169C60.9523 18.455 60.9947 17.6931 60.9947 16.9736C60.9947 16.8466 61.0793 16.7619 61.2063 16.7619C61.9682 16.8466 62.4761 16.9736 62.8148 17.1852C63.1534 17.3968 63.3227 17.7355 63.2804 18.1164C63.238 18.582 63.0687 18.9206 62.7724 19.09ZM63.2804 14.3915C63.365 14.5609 63.4074 14.7725 63.4074 14.9841C63.4074 15.1958 63.3227 15.4074 63.1534 15.5344C62.9841 15.6614 62.7724 15.7884 62.3915 15.873C62.0952 15.9154 61.6719 15.9577 61.2063 16C61.1216 16 61.037 15.9154 61.037 15.8307C61.037 15.1958 61.0793 14.5609 61.0793 13.9683C61.0793 13.7566 61.164 13.7566 61.3756 13.7566C61.5449 13.7566 61.6719 13.7566 61.7566 13.7566C62.2222 13.7566 62.6031 13.8413 62.8148 13.9683C63.0687 14.0529 63.1957 14.2222 63.2804 14.3915Z" fill="#5E222A"/>
<path d="M52.3597 15.7038C52.148 15.2805 51.8517 14.9419 51.5131 14.6456C51.1745 14.3493 50.7935 14.18 50.3279 14.053C49.9046 13.926 49.439 13.926 48.9734 14.0107C48.5925 14.0953 48.2115 14.2646 47.8729 14.4763C47.4496 14.7726 47.111 15.1535 46.8994 15.6191C46.6877 16.0424 46.5607 16.4657 46.4761 16.9736C46.4338 17.4392 46.4761 17.9472 46.6031 18.4128C46.7724 19.0477 47.0263 19.598 47.4073 20.0212C47.7882 20.4445 48.2539 20.7408 48.7618 20.9101C49.2697 21.0794 49.82 21.1218 50.3703 20.9948C50.9205 20.9101 51.3438 20.6562 51.7248 20.3175C52.1057 19.9789 52.402 19.5133 52.5713 18.963C52.529 18.9207 52.4867 18.8784 52.4867 18.8784C52.529 18.9207 52.5713 18.963 52.5713 18.963C52.7406 18.4128 52.8253 17.8202 52.7406 17.1006C52.6983 16.5927 52.5713 16.1271 52.3597 15.7038ZM51.3015 17.6509C51.3438 18.0318 51.3438 18.3704 51.3015 18.7091C51.2591 19.1324 51.1322 19.471 50.9628 19.7249C50.7935 19.9789 50.5819 20.1059 50.2856 20.1482C49.947 20.1906 49.6507 20.1482 49.3544 20.0212C49.0581 19.8519 48.8041 19.6403 48.5925 19.3017C48.3808 18.963 48.2115 18.5398 48.0845 18.0742C47.9999 17.7355 47.9576 17.3546 47.9576 17.016C47.9576 16.635 47.9999 16.3387 48.0845 16.0001C48.1692 15.7038 48.2962 15.4498 48.5078 15.2382C48.6771 15.0265 48.8888 14.9419 49.1004 14.8995C49.439 14.8149 49.7777 14.8995 50.074 15.0689C50.3703 15.2805 50.6242 15.5768 50.7935 15.9578C51.0052 16.381 51.1322 16.8466 51.2168 17.3546C51.2591 17.4392 51.3015 17.5662 51.3015 17.6509Z" fill="#5E222A"/>
<path d="M70.9842 20.6983C70.8149 18.5819 70.6033 16.4232 70.307 14.3068C70.307 14.2221 70.2647 14.0951 70.18 14.0528C70.0954 13.9681 69.9684 13.9258 69.8414 13.9258C69.5874 13.8835 69.3758 13.8412 69.1218 13.7988C68.9948 13.7988 68.8678 13.7988 68.7832 13.8412C68.6985 13.8835 68.6139 13.9681 68.5715 14.0528C67.598 15.9999 66.7091 17.947 65.9049 19.8941C65.9049 19.9364 65.8625 19.9787 65.8625 20.0211C65.8625 20.1057 65.8625 20.2327 65.9472 20.275C66.0319 20.3597 66.1165 20.3597 66.2435 20.402C66.4128 20.402 66.5821 20.4443 66.7091 20.4443C66.8361 20.4443 66.9207 20.4443 67.0054 20.402C67.0901 20.3597 67.1747 20.275 67.217 20.1904C67.3864 19.7671 67.5557 19.3861 67.725 18.9629C67.7673 18.9205 67.8096 18.8782 67.852 18.8782C68.4022 18.9628 68.9102 19.0475 69.4604 19.1322C69.5028 19.1322 69.5451 19.1745 69.5451 19.2591C69.5874 19.7248 69.6297 20.148 69.6297 20.6136C69.6297 20.6983 69.6721 20.8253 69.7567 20.9099C69.8414 20.9946 69.926 21.0369 70.053 21.0369C70.2223 21.0793 70.3493 21.0793 70.5186 21.1216C70.6456 21.1639 70.7303 21.1639 70.8149 21.0793C70.8996 21.0369 70.9419 20.9523 70.9842 20.8676C70.9842 20.783 70.9842 20.7406 70.9842 20.6983ZM68.1483 17.9893C68.4446 17.3544 68.7409 16.6771 69.0372 16.0422C69.0795 15.9576 69.2488 15.9576 69.2488 16.0845C69.3334 16.8041 69.4181 17.5237 69.4604 18.2433C69.4604 18.3279 69.4181 18.3703 69.3334 18.3703C68.9525 18.2856 68.5715 18.2433 68.2329 18.2009C68.1483 18.1586 68.1059 18.074 68.1483 17.9893Z" fill="#5E222A"/>
<path d="M77.2486 22.3915C76.8254 21.2063 76.3174 20.0211 75.7672 18.7936C75.7248 18.7089 75.7672 18.582 75.8518 18.5396C76.91 17.947 78.0106 17.3544 79.1534 16.8042C79.2381 16.7619 79.3227 16.6772 79.365 16.5925C79.4074 16.5079 79.365 16.4232 79.3227 16.3386C79.2381 16.2539 79.1534 16.2116 79.0688 16.1693C78.9418 16.1269 78.7725 16.0846 78.6455 16.0423C78.4338 15.9576 78.2645 16 78.0529 16.0846C77.164 16.5925 76.2751 17.1005 75.4285 17.6084C75.2592 17.6931 75.0899 17.5661 75.1322 17.3968C75.3016 16.8042 75.4709 16.1693 75.6402 15.5767C75.6825 15.4497 75.6825 15.365 75.5979 15.238C75.5132 15.1534 75.4285 15.0687 75.2592 15.0264C75.0899 14.9841 74.9206 14.9417 74.7513 14.8994C74.6243 14.8571 74.4973 14.8571 74.3703 14.8994C74.2434 14.9417 74.201 15.0264 74.1587 15.1534C73.6508 17.1428 73.1852 19.1322 72.6772 21.1216C72.6349 21.2486 72.6349 21.3333 72.7195 21.4179C72.7619 21.5026 72.8889 21.5873 73.0158 21.5873C73.1852 21.6296 73.3121 21.6719 73.4815 21.7142C73.6084 21.7566 73.7354 21.7566 73.8201 21.7142C73.9047 21.6719 73.9894 21.5873 73.9894 21.4603C74.201 20.7407 74.3703 20.0211 74.582 19.3015C74.6243 19.0899 74.7513 19.0899 74.7936 19.1746C75.6825 21.2486 75.6825 21.2486 76.0635 22.2645C76.1058 22.4338 76.2751 22.5608 76.4444 22.6455C76.5714 22.6878 76.6984 22.7301 76.8254 22.7724C76.91 22.8148 77.037 22.8148 77.1217 22.8148C77.2063 22.7724 77.291 22.7301 77.291 22.6455C77.291 22.5608 77.2486 22.4761 77.2486 22.3915Z" fill="#5E222A"/>
<path d="M32.9313 95.4074C32.9313 95.4074 33.1007 95.9576 33.1007 96L34.2858 99.6825C34.3705 99.9788 34.6245 100.148 34.9208 100.063L35.852 99.8941C36.0213 99.8518 36.1483 99.8095 36.2329 99.6825C36.3176 99.5555 36.4022 99.4285 36.4022 99.2592C36.4022 99.2169 36.4022 99.1746 36.3599 99.1746C36.3599 99.1322 36.3599 99.0899 36.3176 99.0899L35.0477 95.2381L34.8361 94.5185C34.6668 93.9682 34.1165 93.6719 33.5663 93.8412L33.397 93.9259C32.4657 94.1799 32.9313 95.4074 32.9313 95.4074Z" fill="#60222B"/>
<path d="M42.5398 99.852L43.344 100.064C43.471 100.106 43.598 100.064 43.6826 100.021C43.8096 99.9366 43.8943 99.8943 43.9366 99.7673L46.2646 95.1959V95.1536C46.5186 94.6879 46.3493 94.0953 45.8414 93.8837L45.7144 93.7991C45.2488 93.5451 44.6562 93.7144 44.4445 94.2223L44.0212 95.0266C44.0212 95.0689 42.0318 98.9207 42.0318 98.9207C41.9895 99.0054 41.9895 99.1324 41.9895 99.2594C41.9895 99.4287 42.0318 99.5557 42.1165 99.6403C42.2858 99.725 42.4128 99.8096 42.5398 99.852Z" fill="#60222B"/>
<path d="M42.7514 101.757H46.6879C46.8572 101.757 46.9842 101.672 47.1111 101.587C47.2381 101.503 47.3228 101.333 47.3228 101.206C47.3228 101.037 47.2381 100.91 47.1111 100.825C46.9842 100.741 46.8572 100.656 46.6879 100.656H41.2275C41.0159 100.656 40.5926 100.529 40.5926 99.8096V94.4763V94.2646V93.799C40.5926 93.2064 40.127 92.6985 39.5344 92.6985H39.3651C38.8148 92.6985 38.3069 93.1641 38.3069 93.799V94.307V99.9789C38.3069 100.445 38.0106 100.698 37.6297 100.698H32.127C31.9577 100.698 31.7884 100.783 31.7037 100.868C31.5768 100.952 31.5344 101.079 31.5344 101.249C31.5344 101.418 31.5768 101.545 31.7037 101.63C31.8307 101.714 31.9577 101.799 32.127 101.799H36.1059C36.3175 101.799 36.4021 102.053 36.2752 102.222L32.5503 106.878C32.4656 107.048 32.381 107.175 32.381 107.344C32.381 107.471 32.4233 107.556 32.4656 107.683C32.5503 107.81 32.6773 107.894 32.8043 107.937L33.3545 108.148C33.3969 108.148 33.4392 108.191 33.4392 108.191C33.4815 108.191 33.4815 108.233 33.5238 108.233C33.6932 108.233 33.8201 108.148 33.9471 108.021L38.4339 102.053C38.5609 101.884 38.7302 101.799 38.9418 101.799H39.1111C39.6614 101.799 39.7884 102.18 39.7884 102.476V107.259C39.7884 107.386 39.8307 107.513 39.873 107.598C40 107.81 40.2117 107.852 40.4233 107.852H46.1376C46.2646 107.852 46.3916 107.81 46.4762 107.767C46.6455 107.64 46.7302 107.429 46.7302 107.175V105.058V104.974C46.7302 104.381 46.2646 103.915 45.672 103.915H45.5027C44.9524 103.915 44.4445 104.381 44.4445 104.974V105.058V106.074C44.4445 106.54 43.9365 106.709 43.8519 106.709H42.7514C42.6667 106.709 42.1164 106.709 42.1164 105.989V102.476C42.1164 101.757 42.709 101.757 42.7514 101.757Z" fill="#60222B"/>
<path d="M67.217 104.466L65.5239 97.6931L65.3546 97.0159C65.2276 96.4656 64.6773 96.127 64.1271 96.254L63.9578 96.2963C63.4075 96.4233 63.0689 96.9735 63.1958 97.5238L63.3652 98.201C63.3652 98.2434 65.016 104.804 65.016 104.804C65.1006 105.143 65.3122 105.312 65.6932 105.27L66.7514 105.143C67.0477 105.101 67.217 104.974 67.217 104.677C67.217 104.593 67.217 104.508 67.217 104.466Z" fill="#60222B"/>
<path d="M59.6401 92.7407H59.4708C58.9206 92.7407 58.4126 93.2063 58.4126 93.7989V93.8413V106.37C58.4126 106.624 58.201 106.794 57.9894 106.751L57.6084 106.709C57.4391 106.667 57.2698 106.709 57.1428 106.751C56.9735 106.794 56.9312 106.921 56.9312 107.132V107.175C56.9312 107.344 56.9735 107.471 57.0158 107.598C57.0581 107.683 57.1851 107.767 57.3968 107.767L60.0211 108.106C60.656 108.106 60.7407 107.683 60.7407 107.302V94.3915V93.8413V93.7989C60.656 93.2063 60.1904 92.7407 59.6401 92.7407Z" fill="#60222B"/>
<path d="M55.619 96.5925L55.4497 96.5501C54.8994 96.3808 54.3492 96.7195 54.1798 97.2274L53.9682 97.947L51.8941 104.804C51.8518 104.889 51.8518 104.973 51.8518 105.016C51.8518 105.312 52.0211 105.439 52.3174 105.481L53.3333 105.651C53.6719 105.693 53.9259 105.566 54.0105 105.227L56.2116 97.8623C56.5079 97.3121 56.1693 96.7195 55.619 96.5925Z" fill="#60222B"/>
<path d="M25.7777 94.5186C25.7777 94.1377 25.5238 93.6721 24.9312 93.6297C24.9312 93.6297 14.7724 93.5874 14.5608 93.5874C14.5608 93.5874 13.9259 93.5451 13.6719 93.5874C13.2063 93.6297 12.8677 94.053 12.8677 94.434V107.894C12.8677 108.275 13.164 108.529 13.5026 108.529H14.5608C14.8994 108.529 15.1111 108.36 15.1534 108.021C15.1534 107.979 15.1957 107.979 15.1957 107.979H23.4074C23.4497 107.979 23.4497 108.021 23.4497 108.021C23.4497 108.402 23.746 108.656 24.0846 108.656H25.0582C25.4391 108.656 25.6931 108.36 25.6931 108.021L25.7777 94.5186ZM23.492 106.624C23.492 106.751 23.365 106.878 23.238 106.878H15.4074C15.2804 106.878 15.1534 106.751 15.1534 106.624V102.265C15.1534 101.799 15.5343 101.46 15.9576 101.46H22.6455C23.1111 101.46 23.492 101.841 23.492 102.307V106.624ZM23.492 100.106C23.492 100.233 23.365 100.36 23.238 100.36H15.4074C15.2804 100.36 15.1534 100.233 15.1534 100.106V95.5345C15.1534 95.0689 15.5343 94.7303 15.9576 94.7303H22.6878C23.1534 94.7303 23.492 95.1112 23.492 95.5345V100.106Z" fill="#60222B"/>
<path d="M93.2486 94.5185H99.1322C99.5131 94.5185 99.7248 94.3492 99.7248 93.9682C99.7248 93.6296 99.5131 93.418 99.1322 93.418H93.2486C92.8676 93.418 92.656 93.5873 92.656 93.9682C92.656 94.3492 92.8676 94.5185 93.2486 94.5185Z" fill="#60222B"/>
<path d="M106.836 98.6243H102.391C102.349 98.6243 102.264 98.582 102.264 98.4974L102.349 96.9736C102.349 96.6773 102.518 96.4233 102.772 96.2963L106.709 94.1376C106.709 94.1376 106.709 94.1376 106.751 94.1376C106.751 94.1376 106.794 94.1376 106.794 94.0952C107.005 93.9683 107.175 93.7143 107.175 93.545C107.217 93.418 107.175 93.2487 107.132 93.1217C106.963 92.7831 106.497 92.6984 106.116 92.9101C106.074 92.9101 106.074 92.9524 106.032 92.9524C105.566 93.2064 101.799 95.2381 100.529 96C100.106 96.254 100.148 96.7196 100.106 96.8889L99.5132 107.683C99.4708 108.064 99.6825 108.275 100.063 108.275L101.164 108.317C101.545 108.36 101.757 108.148 101.799 107.767L102.222 100.148C102.264 99.8095 102.561 99.6825 102.73 99.6825C102.73 99.6825 103.069 99.6825 103.45 99.6825C103.788 99.6825 103.958 100.064 103.958 100.19C103.958 100.529 103.958 107.937 103.958 107.937C103.958 108.317 104.254 108.614 104.635 108.614H105.524C105.905 108.614 106.201 108.317 106.201 107.937V100.317C106.159 99.8519 106.497 99.7249 106.624 99.6825C106.709 99.6402 106.963 99.6402 106.963 99.6402C107.344 99.6402 107.513 99.5132 107.513 99.1323C107.386 98.7937 107.217 98.6243 106.836 98.6243Z" fill="#60222B"/>
<path d="M98.7513 97.0581L93.037 97.1004C92.6561 97.1004 92.4444 97.2697 92.4444 97.6507L91.9365 107.852C91.8942 108.233 92.1058 108.444 92.4868 108.444H93.5873C93.9682 108.444 94.1799 108.275 94.1799 107.894L94.3915 103.365C94.3915 103.323 94.4339 103.28 94.5185 103.28H96.9735C97.0159 103.28 97.0582 103.323 97.0582 103.365C97.0582 103.492 97.1005 103.577 97.1852 103.661C97.3122 103.746 97.4391 103.788 97.6085 103.788H98.582C98.9629 103.788 99.2592 103.492 99.2592 103.111V97.6084C99.3439 97.2274 99.1323 97.0581 98.7513 97.0581ZM97.0582 102.137C97.0582 102.18 97.0159 102.264 96.9312 102.264H94.5185C94.4762 102.264 94.3915 102.222 94.3915 102.137L94.5608 98.9205C94.5608 98.4549 94.9418 98.1163 95.4074 98.1163H96.2116C96.6772 98.1163 97.0582 98.4973 97.0582 98.9629V102.137Z" fill="#60222B"/>
<path d="M85.2911 101.418H78.3493C78.307 101.418 78.2647 101.418 78.2223 101.376C78.307 101.037 78.2647 100.741 78.053 100.529C77.7567 100.233 77.2065 100.233 76.7409 100.529C76.6562 100.571 76.6139 100.614 76.5715 100.656L76.4869 100.741L76.4446 100.783L76.4022 100.825L72.7197 104.466C72.5927 104.593 72.5081 104.72 72.5081 104.847C72.5081 105.016 72.635 105.143 72.8467 105.27L73.3546 105.481C73.4393 105.524 73.5663 105.566 73.6932 105.566C73.8626 105.566 74.0319 105.481 74.1588 105.355L76.9102 102.688C77.1218 102.476 77.6721 102.519 77.7567 102.519H81.7779C82.0319 102.519 82.1589 102.857 81.9472 102.984L80.2964 104.212C80.2541 104.254 80.1694 104.254 80.1271 104.212L78.0107 103.026C77.8837 102.942 77.7567 102.942 77.6297 102.942C77.4604 102.942 77.3335 102.984 77.1641 103.111L76.9948 103.238C76.8255 103.365 76.7409 103.492 76.7409 103.619C76.7409 103.788 76.8255 103.915 77.0372 104L78.7726 104.974C78.8573 105.016 78.8996 105.185 78.7726 105.228L75.8096 107.429C75.6403 107.556 75.5557 107.683 75.5557 107.81C75.5557 107.979 75.6403 108.106 75.852 108.19L76.1906 108.402C76.3176 108.487 76.4446 108.529 76.5715 108.529C76.6985 108.529 76.8678 108.487 76.9948 108.36L80.2964 105.905C80.3387 105.862 80.4234 105.862 80.4657 105.905L82.2012 106.878C82.3282 106.963 82.4551 106.963 82.5821 106.963C82.7514 106.963 82.8784 106.921 83.0477 106.794L83.2171 106.667C83.3864 106.54 83.471 106.413 83.471 106.286C83.471 106.116 83.3864 105.989 83.1747 105.905L81.8202 105.143C81.7356 105.101 81.6932 104.931 81.8202 104.889L85.5874 102.095C85.7567 101.884 85.6297 101.418 85.2911 101.418Z" fill="#60222B"/>
<path d="M86.7302 99.9788L81.1006 97.8624C80.9736 97.8201 80.8889 97.7354 80.8889 97.6084V95.6614C80.8889 95.3651 81.1429 95.1111 81.4392 95.1111H86.6455C87.0265 95.1111 87.2381 94.9418 87.2381 94.6032C87.2381 94.2645 87.0265 94.0952 86.6455 94.0952H81.0582C80.9736 94.0952 80.9312 94.0529 80.9312 94.0106C80.9312 93.291 80.4233 92.7407 79.7884 92.7407C79.1958 92.7407 78.6879 93.291 78.6455 93.9682C78.6455 94.0529 78.5609 94.0952 78.4762 94.0952H72.5503C72.1693 94.0952 71.9577 94.2645 71.9577 94.6032C71.9577 94.9418 72.1693 95.1111 72.5503 95.1111H78.0953C78.3916 95.1111 78.6455 95.3651 78.6455 95.619C78.6455 95.619 78.6032 96.8889 78.5609 97.5238C78.5609 97.6931 78.4339 97.8624 78.2223 97.9471L72.254 99.9788C72 100.063 71.873 100.19 71.873 100.402C71.873 100.487 71.9154 100.614 72 100.741V100.783C72.127 100.952 72.3387 101.079 72.5503 101.079H72.635C72.6773 101.079 72.7196 101.079 72.7619 101.037L78.3492 99.1323C78.4339 99.0899 78.5609 99.1746 78.5609 99.2592V100.571C78.5609 100.995 78.8995 101.291 79.3228 101.291H80.0847C80.508 101.291 80.8466 100.952 80.8466 100.571V99.3016C80.8466 99.1746 80.9736 99.1323 81.0582 99.1746L86.0529 101.037C86.1799 101.079 86.2646 101.079 86.3492 101.079C86.5609 101.079 86.7302 100.995 86.8572 100.825L86.9418 100.741C87.0265 100.614 87.0688 100.529 87.0688 100.444C87.1111 100.233 86.9842 100.106 86.7302 99.9788Z" fill="#60222B"/>
<path d="M84.9102 95.7036C84.6985 95.4073 84.2329 95.365 83.7673 95.5343H83.725C83.598 95.619 83.4287 95.7036 83.344 95.7883H83.3017C83.2594 95.8306 83.1747 95.873 83.1324 95.9576L81.7356 97.2698C81.6086 97.3968 81.5239 97.5238 81.5239 97.6507C81.5239 97.82 81.6509 97.947 81.8625 98.074L82.3282 98.2857C82.4551 98.3703 82.5821 98.3703 82.6668 98.3703C82.8361 98.3703 82.9631 98.2857 83.1324 98.1587L83.3017 97.9894C83.471 97.82 83.725 97.82 83.8943 97.947L85.3758 99.0476C85.5028 99.1322 85.6721 99.2169 85.7991 99.2169C85.926 99.2169 86.053 99.1745 86.18 99.0899L86.5186 98.8782C86.6879 98.7513 86.8149 98.6243 86.8149 98.4973C86.8149 98.3703 86.7303 98.2433 86.561 98.1163L84.8678 96.8465C84.8255 96.8042 84.8255 96.7618 84.8255 96.7618C85.0371 96.3809 85.1218 95.9576 84.9102 95.7036Z" fill="#60222B"/>
<path d="M75.5133 95.4498C75.1324 95.1111 74.4974 95.1958 74.0318 95.7037C73.9895 95.7461 73.9472 95.8307 73.9049 95.873L72.0847 98.3281C72.0001 98.455 71.9578 98.582 71.9578 98.6667C71.9578 98.836 72.0847 99.0053 72.3387 99.09L73.0583 99.3439C73.143 99.3863 73.2276 99.3863 73.3123 99.3863C73.5239 99.3863 73.6932 99.3016 73.8202 99.09L74.4974 98.2011C74.6668 97.9894 74.9631 97.9048 75.1747 98.0318L76.2329 98.455C76.3176 98.4974 76.4445 98.5397 76.5715 98.5397C76.7408 98.5397 76.9101 98.4551 77.0371 98.2857L77.1641 98.1588C77.2911 98.0318 77.3334 97.9048 77.3334 97.8201C77.3334 97.6508 77.2064 97.5238 76.9525 97.3968L75.7673 96.8889C75.6826 96.8466 75.6403 96.7619 75.6826 96.6773C75.8943 96.254 75.8519 95.7461 75.5133 95.4498Z" fill="#60222B"/>
</svg>
