<svg width="72" height="72" viewBox="0 0 72 72" fill="none" xmlns="http://www.w3.org/2000/svg">
<mask id="mask0_1190_1790" style="mask-type:alpha" maskUnits="userSpaceOnUse" x="0" y="0" width="72" height="72">
<rect width="72" height="72" fill="white"/>
</mask>
<g mask="url(#mask0_1190_1790)">
<path d="M58.3873 27.8571C57.6762 25.9016 56.9651 24.1746 54.3746 23.9714C52.1905 23.7683 51.9365 24.9619 51.7841 26.0286C51.6571 27.7302 50.8952 28.0095 50.2857 28.1619C49.346 28.3905 44.4444 29.5587 44.4444 29.5587L43.0984 29.8889L39.2381 30.8032L34.3873 31.9714C34.3873 31.9714 28.673 33.3429 27.5809 33.5968C26.7936 33.7746 25.6508 33.927 24.5841 31.7936C24.5587 31.7429 24.5333 31.7175 24.4825 31.6413C24 30.7524 23.2889 30.727 22.7555 30.981C22.6286 31.0571 22.527 31.1333 22.4 31.2603C22.3746 31.2857 22.3492 31.3111 22.3492 31.3365C21.8667 31.819 21.2063 32.1746 20.4444 32.3524C18.5143 32.8095 16.6349 31.8698 16.254 30.2698C15.873 28.6698 17.1175 26.9683 19.0476 26.5111C19.1746 26.4857 19.3016 26.4603 19.4286 26.4349C19.4286 26.4349 21.5619 26.0794 22.654 26.181C22.8317 26.2063 23.0095 26.2571 23.1619 26.3333C25.6 27.6032 28.8254 27.2222 29.0032 26.3333C29.4095 24.4032 26.6413 22.6 26.3111 22.4222C25.9048 22.219 25.6762 21.9397 25.854 21.5587C26.8698 19.1714 26.4635 17.0635 25.6762 16.3016C25.0921 15.7429 21.9429 17.5206 20.8762 20.2381C20.7492 20.5429 20.546 20.8222 20.2667 21C13.054 26.0794 11.3016 34.4349 14.5016 41.546C17.9809 49.3175 45.4095 47.946 51.7333 45.2032C58.7682 42.5365 60.0127 34.0032 58.3873 27.8571Z" fill="#E9E5DA"/>
<path d="M34.2856 14.4984C33.6761 13.5841 27.5301 15.9715 27.911 20.5683C28.292 25.1651 35.0475 26.3334 35.5555 25.1143C36.3428 23.2857 33.9555 20.9238 33.6761 20.6953C33.2952 20.4159 33.1428 20.0857 33.3967 19.7302C34.8952 17.5715 34.8952 15.4127 34.2856 14.4984Z" fill="#E6A73D"/>
<path d="M42.5903 14.0159C42.0316 13.0508 35.7332 14.981 35.784 19.6032C35.8094 24.2 42.4634 25.8762 43.0729 24.708C44.0126 22.9302 41.803 20.4159 41.5237 20.1619C41.1681 19.8572 41.0411 19.527 41.3205 19.1715C42.9713 17.1397 43.1491 14.981 42.5903 14.0159Z" fill="#E6A73D"/>
<path d="M46.73 17.0127C44.3427 16.8349 43.5046 18.2571 43.3776 18.9936C43.3522 20.2381 44.4951 21.2031 46.6538 21.2285C48.4824 21.2539 50.9967 19.7301 50.9967 19.1206C50.8697 18.3333 49.1173 17.1904 46.73 17.0127Z" fill="#E6A73D"/>
<path d="M20.1397 12.7967C19.4286 11.6285 19.1746 11.1967 18.4889 10.0285C18.4889 10.0285 18.4635 10.0031 18.4635 9.97767C18.4635 9.95227 18.4889 9.92688 18.5143 9.92688C18.6413 9.90148 18.7429 9.82529 18.7936 9.7237C18.819 9.64751 18.819 9.59672 18.7936 9.54592C18.7682 9.49513 18.7175 9.44434 18.6413 9.44434C18.5651 9.44434 18.4889 9.44434 18.4127 9.49513C18.0063 9.7237 17.6 9.97767 17.1936 10.2316C17.1175 10.2824 17.0667 10.3332 17.0413 10.4094C17.0159 10.4856 17.0159 10.5364 17.0413 10.5872C17.0667 10.638 17.1429 10.6634 17.219 10.6888C17.3206 10.6888 17.4222 10.638 17.5238 10.5618C17.5746 10.5364 17.6 10.5364 17.6254 10.5618C18.1841 11.4761 18.7429 12.3904 19.3016 13.3047C19.3016 13.3047 19.3016 13.3301 19.2762 13.3554C19.1746 13.4316 19.0476 13.457 19.0222 13.5586C18.9968 13.6348 18.9968 13.6856 19.0476 13.7364C19.073 13.7872 19.1492 13.8126 19.2 13.838C19.2762 13.838 19.3524 13.8126 19.4286 13.7618C19.7587 13.5332 20.0889 13.33 20.4444 13.1523C20.5206 13.1269 20.5714 13.0761 20.5968 12.9999C20.6222 12.9237 20.6222 12.8729 20.5968 12.8221C20.5714 12.7713 20.5206 12.7205 20.4444 12.7205C20.3429 12.6951 20.2413 12.7459 20.1651 12.8221C20.1651 12.7967 20.1397 12.7967 20.1397 12.7967Z" fill="#E9E5DA"/>
<path d="M15.9238 11.1206C15.8476 11.1206 15.7714 11.146 15.6952 11.1968C15.619 11.2476 15.5428 11.2984 15.4666 11.3492C15.3904 11.4 15.3396 11.4508 15.3142 11.527C15.2888 11.6031 15.3142 11.6539 15.365 11.7301C15.8222 12.3904 16.3047 13.0254 16.7619 13.6857C16.8126 13.7619 16.7365 13.8381 16.6603 13.8127C15.7714 13.4317 14.8571 13.0762 13.892 12.746C13.8412 12.7206 13.765 12.7206 13.7142 12.746C13.638 12.7714 13.5872 12.7968 13.5365 12.8476C13.4095 12.9492 13.2825 13.0508 13.1555 13.1524C13.0793 13.2031 13.0285 13.2793 13.0285 13.3555C13.0031 13.4317 13.0285 13.4825 13.0793 13.5333C13.8666 14.473 14.6793 15.3873 15.4666 16.327C15.5174 16.3777 15.5682 16.4031 15.6444 16.4031C15.7206 16.4031 15.7714 16.3777 15.8476 16.327C15.9238 16.2762 15.9746 16.2254 16.0507 16.1746C16.1015 16.1238 16.1523 16.073 16.1777 15.9968C16.1777 15.9206 16.1523 15.8698 16.1269 15.819C15.619 15.2095 15.1365 14.5746 14.6285 13.9651C14.5777 13.8889 14.6539 13.7873 14.7301 13.8381C15.6444 14.1682 16.5587 14.5238 17.4222 14.9301C17.473 14.9555 17.5238 14.9555 17.5999 14.9555C17.6507 14.9555 17.7269 14.9301 17.7777 14.8793C17.9047 14.8031 18.0063 14.7016 18.1333 14.6254C18.1841 14.5746 18.2349 14.5238 18.2603 14.4476C18.2857 14.3714 18.2603 14.3206 18.2095 14.2698C17.5238 13.2539 16.8126 12.2381 16.1269 11.2222C16.0507 11.1714 15.9999 11.1206 15.9238 11.1206Z" fill="#E9E5DA"/>
<path d="M27.8349 9.74925C27.2508 9.31751 26.6413 8.91116 26.0064 8.50481C25.9048 8.45402 25.8794 8.30163 25.9302 8.20005C26.2349 7.56513 26.5651 6.9556 26.9461 6.32068C26.9715 6.26989 26.9968 6.21909 26.9715 6.1429C26.9461 6.09211 26.9207 6.04132 26.8699 6.04132C26.8191 6.01592 26.7429 6.04132 26.6921 6.04132C26.5905 6.06671 26.5143 6.09211 26.4127 6.11751C26.2857 6.1429 26.2095 6.2191 26.1334 6.32068C25.8286 6.87941 25.5746 7.43814 25.3207 8.02227C25.2953 8.09846 25.1683 8.09846 25.1429 8.02227C25.0159 7.64132 24.8889 7.26037 24.7619 6.87941C24.7365 6.80322 24.7111 6.75243 24.6349 6.72703C24.5588 6.70163 24.4826 6.70163 24.4064 6.72703C24.3048 6.75243 24.2032 6.80322 24.1016 6.82862C24.0254 6.85402 23.9492 6.90481 23.9238 6.9556C23.8984 7.0064 23.8984 7.08259 23.9238 7.15878C24.3556 8.30163 24.7619 9.46989 25.1937 10.6127C25.2191 10.6889 25.2445 10.7397 25.3207 10.7651C25.3715 10.7905 25.4476 10.7905 25.5238 10.7651C25.6 10.7397 25.7016 10.7143 25.7778 10.6635C25.854 10.6381 25.9048 10.6127 25.9302 10.5366C25.9556 10.4858 25.9556 10.4096 25.9302 10.3334C25.7778 9.90163 25.6508 9.49529 25.4984 9.06354C25.473 8.98735 25.4984 8.91116 25.6 8.93655C26.1588 9.29211 26.6921 9.64767 27.2254 10.0286C27.327 10.1048 27.4286 10.1048 27.5302 10.0794C27.6064 10.054 27.6826 10.0286 27.7588 10.0032C27.8095 9.97782 27.8603 9.95243 27.9111 9.92703C27.9619 9.87624 27.9619 9.82544 27.9365 9.77465C27.9111 9.82544 27.8857 9.77465 27.8349 9.74925Z" fill="#E9E5DA"/>
<path d="M24.1016 10.9937C23.4667 10.6381 22.8064 10.3333 22.1461 10.0032C22.0191 9.9524 21.9683 9.80002 22.0191 9.67303C22.2477 9.01271 22.5016 8.3524 22.781 7.71748C22.8064 7.66668 22.8064 7.59049 22.781 7.5397C22.7556 7.4889 22.7302 7.46351 22.654 7.43811C22.6032 7.43811 22.527 7.43811 22.4762 7.46351C22.4001 7.4889 22.2985 7.5397 22.2223 7.56509C22.0953 7.61589 22.0191 7.69208 21.9683 7.81906C21.7397 8.40319 21.5366 9.01271 21.3588 9.59684C21.3334 9.67303 21.2064 9.69843 21.181 9.62224C21.0032 9.26668 20.8254 8.91113 20.6477 8.55557C20.6223 8.50478 20.5715 8.45398 20.4953 8.42859C20.4191 8.40319 20.3429 8.42859 20.2667 8.47938C20.1651 8.53017 20.0635 8.58097 19.9874 8.63176C19.9112 8.68255 19.8604 8.73335 19.8096 8.78414C19.7842 8.86033 19.7842 8.91113 19.8096 8.98732C20.3683 10.0794 20.927 11.1714 21.5112 12.2635C21.5366 12.3143 21.5874 12.3651 21.6635 12.3905C21.7397 12.4159 21.7905 12.3905 21.8667 12.3651C21.9429 12.3143 22.0445 12.2889 22.1207 12.2381C22.1969 12.2127 22.2477 12.1619 22.2731 12.0857C22.2985 12.0349 22.2985 11.9587 22.2477 11.8826C22.0445 11.4762 21.8667 11.0699 21.6635 10.6635C21.6128 10.5619 21.6635 10.4857 21.7143 10.5111C22.3239 10.7905 22.9334 11.0953 23.5175 11.4C23.6191 11.4508 23.7207 11.4508 23.8477 11.4C23.9239 11.3746 24.0001 11.3238 24.0762 11.2984C24.127 11.273 24.1778 11.2476 24.2032 11.1968C24.2286 11.146 24.2286 11.0953 24.2286 11.0445C24.2032 11.0699 24.1524 11.0191 24.1016 10.9937Z" fill="#E9E5DA"/>
<path d="M49.7018 11.6539C49.2446 11.4254 48.7621 11.2222 48.2795 11.019C48.2287 10.9936 48.2033 10.9428 48.2287 10.892C48.3811 10.5365 48.5335 10.1809 48.6859 9.82535C48.7113 9.77456 48.7621 9.74916 48.8129 9.77456C49.27 9.95234 49.7018 10.1555 50.1335 10.3587C50.2097 10.3841 50.2859 10.4095 50.3367 10.3841C50.4129 10.3587 50.4383 10.3333 50.4891 10.2571C50.5145 10.2063 50.5145 10.1301 50.4891 10.0793C50.4637 10.0285 50.3875 9.97774 50.3367 9.92694C49.8795 9.72377 49.4478 9.52059 48.9906 9.31742C48.9399 9.29202 48.9145 9.24123 48.9399 9.19043C49.0922 8.80948 49.2446 8.42853 49.4224 8.04758C49.4478 7.99678 49.4986 7.97139 49.5494 7.99678C50.0827 8.22535 50.5906 8.45393 51.124 8.70789C51.2002 8.73329 51.2764 8.75869 51.3526 8.75869C51.4287 8.73329 51.4795 8.70789 51.5049 8.6317C51.5303 8.58091 51.5303 8.50472 51.5049 8.45393C51.4795 8.40313 51.4033 8.35234 51.3272 8.30155C50.5653 7.92059 49.7779 7.59043 48.9906 7.28567C48.9145 7.26028 48.8383 7.23488 48.7621 7.26028C48.6859 7.28567 48.6605 7.33647 48.6351 7.38726C48.2033 8.53012 47.7462 9.67297 47.3145 10.8158C47.2891 10.892 47.2891 10.9428 47.3145 11.019C47.3399 11.0698 47.3906 11.1206 47.4668 11.146C48.1526 11.4254 48.8637 11.7301 49.524 12.0349C49.6002 12.0603 49.651 12.0857 49.7272 12.0603C49.8033 12.0349 49.8287 12.0095 49.8541 11.9333C49.8795 11.8825 49.8795 11.8063 49.8541 11.7555C49.8287 11.7301 49.7779 11.6793 49.7018 11.6539Z" fill="#E9E5DA"/>
<path d="M58.9206 13.3048C58.8952 13.254 58.8444 13.1778 58.7682 13.127C58.692 13.0763 58.6158 13.0001 58.565 12.9493C58.5142 12.8985 58.4634 12.8731 58.4126 12.8477C58.3364 12.8223 58.2856 12.8223 58.2348 12.8477C57.7015 13.0763 57.1682 13.3048 56.6602 13.5588C56.6095 13.5842 56.5587 13.5334 56.5587 13.4826C56.6856 12.9239 56.7872 12.3651 56.8634 11.8064C56.8634 11.7556 56.8634 11.6794 56.8126 11.6286C56.7872 11.5778 56.7364 11.5524 56.6856 11.5016C56.6094 11.4509 56.5333 11.4001 56.4571 11.3493C56.3809 11.2985 56.3047 11.2731 56.2539 11.2477C56.1777 11.2477 56.1269 11.2731 56.0761 11.3239C56.0253 11.3747 56.0253 11.4509 55.9999 11.5524C55.8983 12.4159 55.7714 13.254 55.619 14.0921C55.3904 14.3969 55.1872 14.6509 54.9333 14.9556C54.8317 15.0572 54.7809 15.108 54.8063 15.235C54.8317 15.3112 54.8571 15.362 54.9079 15.4128C55.0094 15.489 55.0856 15.5651 55.1872 15.6413C55.238 15.6921 55.3142 15.7175 55.3904 15.7175C55.492 15.6921 55.5682 15.5905 55.619 15.5143C55.8729 15.1842 56.0761 14.9302 56.3301 14.6001C57.092 14.2699 57.8539 13.9397 58.6412 13.635C58.692 13.6096 58.7428 13.5842 58.7682 13.5842C58.7936 13.5588 58.819 13.5334 58.8444 13.5334C58.946 13.4318 58.946 13.3556 58.9206 13.3048Z" fill="#E9E5DA"/>
<path d="M53.2572 13.8127C53.2318 13.2286 53.181 12.6445 53.1302 12.0349C53.1302 12.0095 53.1556 11.9841 53.181 11.9841C53.5366 12.1365 53.8413 12.1873 54.1207 12.1873C54.4509 12.1619 54.6794 12.0349 54.8572 11.781C55.1112 11.4254 55.1366 11.0191 54.908 10.6127C54.7048 10.2064 54.2477 9.80001 53.5874 9.44446C53.4858 9.36827 53.3588 9.31747 53.2318 9.24128C53.1048 9.19049 52.9778 9.1143 52.8255 9.0635C52.7493 9.03811 52.6731 9.01271 52.6223 9.03811C52.5461 9.0635 52.5207 9.0889 52.4699 9.13969C51.8858 10.2318 51.3271 11.3238 50.7429 12.4159C50.7175 12.4667 50.7175 12.5429 50.7429 12.6191C50.7683 12.6952 50.8191 12.746 50.8699 12.7714C50.9461 12.8222 51.0477 12.873 51.1239 12.9238C51.2001 12.9492 51.2509 12.9746 51.3271 12.9492C51.4032 12.9238 51.454 12.8984 51.4794 12.8476C51.7334 12.4159 51.962 11.9841 52.2159 11.5524C52.2413 11.5016 52.3429 11.6032 52.3429 11.6286C52.4191 12.2889 52.4699 12.9746 52.5207 13.6349C52.5207 13.7111 52.5715 13.7873 52.6477 13.8381C52.7747 13.9143 52.9017 13.9905 53.0032 14.0667C53.0286 14.0921 53.0794 14.1175 53.1048 14.1175C53.1302 14.1175 53.1556 14.1175 53.1556 14.1175C53.181 14.1175 53.181 14.0921 53.2064 14.0921C53.2318 14.0667 53.2318 14.0413 53.2318 13.9905C53.2572 13.9143 53.2572 13.8635 53.2572 13.8127ZM53.181 9.82541C53.2064 9.77462 53.2572 9.80001 53.2826 9.80001C53.3334 9.82541 53.3842 9.85081 53.4096 9.8762C53.8413 10.1302 54.0953 10.3587 54.1969 10.5873C54.2985 10.7905 54.2731 11.0191 54.0953 11.3238C53.9683 11.5524 53.7905 11.6286 53.5874 11.6286C53.3842 11.6286 53.0794 11.527 52.6985 11.2984C52.6223 11.2476 52.4191 11.1714 52.4445 11.0952C52.9524 10.2064 52.6731 10.6889 53.181 9.82541Z" fill="#E9E5DA"/>
<path d="M38.5776 7.28565C38.476 7.15866 38.3236 7.05708 38.1459 6.95549C38.1205 6.93009 38.1205 6.8793 38.1459 6.8793C38.3236 6.80311 38.5014 6.72692 38.603 6.62533C38.7554 6.47295 38.8316 6.26977 38.857 6.0412C38.8824 5.81263 38.8316 5.60946 38.7046 5.43168C38.5776 5.2539 38.3744 5.10152 38.0951 4.97454C37.8157 4.87295 37.4347 4.79676 36.9522 4.77136C36.8252 4.77136 36.6728 4.77136 36.4951 4.77136C36.3427 4.77136 36.1649 4.77136 35.9871 4.79676C35.9109 4.79676 35.8347 4.82216 35.784 4.87295C35.7332 4.92374 35.7078 4.97454 35.7078 5.05073C35.7078 6.29517 35.7332 7.51422 35.7332 8.75866C35.7332 8.83485 35.7586 8.88565 35.8093 8.93644C35.8601 8.98724 35.9363 9.01263 35.9871 9.01263C36.1395 9.03803 36.2919 9.03803 36.4189 9.03803C36.5459 9.03803 36.6728 9.06343 36.7998 9.06343C37.2316 9.06343 37.5871 9.03803 37.8665 8.96184C38.1459 8.88565 38.349 8.75866 38.5014 8.58089C38.6538 8.40311 38.73 8.17454 38.7554 7.92057C38.8062 7.692 38.73 7.48882 38.5776 7.28565ZM37.6633 8.4539C37.4855 8.58089 37.2062 8.63168 36.8506 8.60628C36.7998 8.60628 36.749 8.60628 36.6728 8.60628C36.622 8.60628 36.5713 8.58089 36.5713 8.53009C36.5713 8.07295 36.5967 7.61581 36.5967 7.18406C36.5967 7.10787 36.6474 7.05708 36.7236 7.05708C37.1808 7.10787 37.4855 7.18406 37.6887 7.31104C37.8919 7.43803 37.9935 7.6412 37.9681 7.86977C37.9427 8.14914 37.8411 8.35231 37.6633 8.4539ZM37.9681 5.63485C38.0189 5.73644 38.0443 5.86343 38.0443 5.99041C38.0443 6.11739 37.9935 6.24438 37.8919 6.32057C37.7903 6.39676 37.6633 6.47295 37.4347 6.52374C37.257 6.54914 37.003 6.57454 36.7236 6.59993C36.6728 6.59993 36.622 6.54914 36.622 6.49835C36.622 6.11739 36.6474 5.73644 36.6474 5.38089C36.6474 5.2539 36.6982 5.2539 36.8252 5.2539C36.9268 5.2539 37.003 5.2539 37.0538 5.2539C37.3332 5.2539 37.5617 5.3047 37.6887 5.38089C37.8411 5.43168 37.9173 5.53327 37.9681 5.63485Z" fill="#E9E5DA"/>
<path d="M31.4159 6.42224C31.2889 6.16828 31.1111 5.9651 30.908 5.78732C30.7048 5.60955 30.4762 5.50796 30.1969 5.43177C29.9429 5.35558 29.6635 5.35558 29.3842 5.40637C29.1556 5.45717 28.927 5.55875 28.7238 5.68574C28.4699 5.86351 28.2667 6.09209 28.1397 6.37145C28.0127 6.62542 27.9365 6.87939 27.8857 7.18415C27.8603 7.46351 27.8857 7.76828 27.9619 8.04764C28.0635 8.42859 28.2159 8.75875 28.4445 9.01272C28.673 9.26669 28.9524 9.44447 29.2572 9.54605C29.5619 9.64764 29.8921 9.67304 30.2223 9.59685C30.5524 9.54605 30.8064 9.39367 31.0349 9.1905C31.2635 8.98732 31.4413 8.70796 31.5429 8.3778C31.5175 8.3524 31.4921 8.32701 31.4921 8.32701C31.5175 8.3524 31.5429 8.3778 31.5429 8.3778C31.6445 8.04764 31.6953 7.69209 31.6445 7.26034C31.6191 6.95558 31.5429 6.67621 31.4159 6.42224ZM30.781 7.5905C30.8064 7.81907 30.8064 8.02225 30.781 8.22542C30.7556 8.47939 30.6794 8.68256 30.5778 8.83494C30.4762 8.98732 30.3492 9.06351 30.1715 9.08891C29.9683 9.11431 29.7905 9.08891 29.6127 9.01272C29.4349 8.91113 29.2826 8.78415 29.1556 8.58097C29.0286 8.3778 28.927 8.12383 28.8508 7.84447C28.8 7.64129 28.7746 7.41272 28.7746 7.20955C28.7746 6.98098 28.8 6.8032 28.8508 6.60002C28.9016 6.42224 28.9778 6.26986 29.1048 6.14288C29.2064 6.0159 29.3334 5.9651 29.4603 5.93971C29.6635 5.88891 29.8667 5.9397 30.0445 6.04129C30.2223 6.16828 30.3746 6.34605 30.4762 6.57463C30.6032 6.82859 30.6794 7.10796 30.7302 7.41272C30.7556 7.46351 30.781 7.53971 30.781 7.5905Z" fill="#E9E5DA"/>
<path d="M42.5906 9.41898C42.489 8.14914 42.362 6.8539 42.1842 5.58406C42.1842 5.53327 42.1588 5.45708 42.1081 5.43168C42.0573 5.38088 41.9811 5.35549 41.9049 5.35549C41.7525 5.33009 41.6255 5.30469 41.4731 5.2793C41.3969 5.2793 41.3208 5.2793 41.27 5.30469C41.2192 5.33009 41.1684 5.38088 41.143 5.43168C40.5588 6.59993 40.0255 7.76819 39.543 8.93644C39.543 8.96184 39.5176 8.98723 39.5176 9.01263C39.5176 9.06342 39.5176 9.13962 39.5684 9.16501C39.6192 9.21581 39.67 9.21581 39.7461 9.2412C39.8477 9.2412 39.9493 9.2666 40.0255 9.2666C40.1017 9.2666 40.1525 9.2666 40.2033 9.2412C40.2541 9.21581 40.3049 9.16501 40.3303 9.11422C40.4319 8.86025 40.5334 8.63168 40.635 8.37771C40.6604 8.35231 40.6858 8.32692 40.7112 8.32692C41.0414 8.37771 41.3461 8.4285 41.6763 8.4793C41.7017 8.4793 41.7271 8.50469 41.7271 8.55549C41.7525 8.83485 41.7779 9.08882 41.7779 9.36819C41.7779 9.41898 41.8033 9.49517 41.8541 9.54596C41.9049 9.59676 41.9557 9.62215 42.0319 9.62215C42.1334 9.64755 42.2096 9.64755 42.3112 9.67295C42.3874 9.69835 42.4382 9.69834 42.489 9.64755C42.5398 9.62215 42.5652 9.57136 42.5906 9.52057C42.5906 9.46977 42.5906 9.44438 42.5906 9.41898ZM40.889 7.79358C41.0668 7.41263 41.2446 7.00628 41.4223 6.62533C41.4477 6.57454 41.5493 6.57454 41.5493 6.65073C41.6001 7.08247 41.6509 7.51422 41.6763 7.94596C41.6763 7.99676 41.6509 8.02215 41.6001 8.02215C41.3715 7.97136 41.143 7.94596 40.9398 7.92057C40.889 7.89517 40.8636 7.84438 40.889 7.79358Z" fill="#E9E5DA"/>
<path d="M46.3491 10.4349C46.0952 9.72383 45.7904 9.01272 45.4603 8.27621C45.4349 8.22542 45.4602 8.14923 45.511 8.12383C46.146 7.76827 46.8063 7.41272 47.492 7.08256C47.5428 7.05716 47.5936 7.00637 47.619 6.95557C47.6444 6.90478 47.619 6.85399 47.5936 6.80319C47.5428 6.7524 47.492 6.727 47.4412 6.70161C47.365 6.67621 47.2634 6.65081 47.1872 6.62542C47.0603 6.57462 46.9587 6.60002 46.8317 6.65081C46.2983 6.95557 45.765 7.26034 45.2571 7.5651C45.1555 7.61589 45.0539 7.5397 45.0793 7.43811C45.1809 7.08256 45.2825 6.70161 45.3841 6.34605C45.4095 6.26986 45.4095 6.21907 45.3587 6.14288C45.3079 6.09208 45.2571 6.04129 45.1555 6.01589C45.0539 5.9905 44.9523 5.9651 44.8507 5.9397C44.7745 5.91431 44.6983 5.91431 44.6222 5.9397C44.546 5.9651 44.5206 6.01589 44.4952 6.09208C44.1904 7.28573 43.911 8.47938 43.6063 9.67304C43.5809 9.74923 43.5809 9.80002 43.6317 9.85081C43.6571 9.90161 43.7333 9.9524 43.8095 9.9524C43.911 9.9778 43.9872 10.0032 44.0888 10.0286C44.165 10.054 44.2412 10.054 44.292 10.0286C44.3428 10.0032 44.3936 9.9524 44.3936 9.87621C44.5206 9.44446 44.6222 9.01272 44.7491 8.58097C44.7745 8.45399 44.8507 8.45399 44.8761 8.50478C45.4095 9.74923 45.4095 9.74923 45.638 10.3587C45.6634 10.4603 45.765 10.5365 45.8666 10.5873C45.9428 10.6127 46.019 10.6381 46.0952 10.6635C46.146 10.6889 46.2222 10.6889 46.2729 10.6889C46.3237 10.6635 46.3745 10.6381 46.3745 10.5873C46.3745 10.5365 46.3491 10.4857 46.3491 10.4349Z" fill="#E9E5DA"/>
<path d="M19.7588 54.2443C19.7588 54.2443 19.8604 54.5745 19.8604 54.5999L20.5715 56.8094C20.6223 56.9872 20.7747 57.0888 20.9525 57.038L21.5112 56.9364C21.6128 56.911 21.689 56.8856 21.7398 56.8094C21.7906 56.7332 21.8413 56.657 21.8413 56.5554C21.8413 56.53 21.8413 56.5046 21.8159 56.5046C21.8159 56.4792 21.8159 56.4538 21.7906 56.4538L21.0286 54.1427L20.9017 53.711C20.8001 53.3808 20.4699 53.2031 20.1398 53.3046L20.0382 53.3554C19.4794 53.5078 19.7588 54.2443 19.7588 54.2443Z" fill="#E9E5DA"/>
<path d="M25.5238 56.9111L26.0063 57.0381C26.0825 57.0635 26.1587 57.0381 26.2095 57.0127C26.2857 56.9619 26.3365 56.9365 26.3619 56.8603L27.7587 54.1175V54.0921C27.9111 53.8127 27.8095 53.4571 27.5047 53.3302L27.4285 53.2794C27.1492 53.127 26.7936 53.2286 26.6666 53.5333L26.4127 54.0159C26.4127 54.0413 25.219 56.3524 25.219 56.3524C25.1936 56.4032 25.1936 56.4794 25.1936 56.5555C25.1936 56.6571 25.219 56.7333 25.2698 56.7841C25.3714 56.8349 25.4476 56.8857 25.5238 56.9111Z" fill="#E9E5DA"/>
<path d="M25.6508 58.0538H28.0127C28.1143 58.0538 28.1905 58.003 28.2667 57.9522C28.3429 57.9014 28.3937 57.7999 28.3937 57.7237C28.3937 57.6221 28.3429 57.5459 28.2667 57.4951C28.1905 57.4443 28.1143 57.3935 28.0127 57.3935H24.7365C24.6095 57.3935 24.3556 57.3173 24.3556 56.8856V53.6856V53.5586V53.2792C24.3556 52.9237 24.0762 52.6189 23.7207 52.6189H23.6191C23.2889 52.6189 22.9841 52.8983 22.9841 53.2792V53.584V56.9872C22.9841 57.2665 22.8064 57.4189 22.5778 57.4189H19.2762C19.1746 57.4189 19.073 57.4697 19.0222 57.5205C18.9461 57.5713 18.9207 57.6475 18.9207 57.7491C18.9207 57.8506 18.9461 57.9268 19.0222 57.9776C19.0984 58.0284 19.1746 58.0792 19.2762 58.0792H21.6635C21.7905 58.0792 21.8413 58.2316 21.7651 58.3332L19.5302 61.1268C19.4794 61.2284 19.4286 61.3046 19.4286 61.4062C19.4286 61.4824 19.454 61.5332 19.4794 61.6094C19.5302 61.6856 19.6064 61.7364 19.6826 61.7618L20.0127 61.8887C20.0381 61.8887 20.0635 61.9141 20.0635 61.9141C20.0889 61.9141 20.0889 61.9395 20.1143 61.9395C20.2159 61.9395 20.2921 61.8887 20.3683 61.8125L23.0603 58.2316C23.1365 58.13 23.2381 58.0792 23.3651 58.0792H23.4667C23.7968 58.0792 23.873 58.3078 23.873 58.4856V61.3554C23.873 61.4316 23.8984 61.5078 23.9238 61.5586C24 61.6856 24.127 61.711 24.254 61.711H27.6826C27.7588 61.711 27.8349 61.6856 27.8857 61.6602C27.9873 61.584 28.0381 61.457 28.0381 61.3046V60.0348V59.984C28.0381 59.6284 27.7588 59.3491 27.4032 59.3491H27.3016C26.9714 59.3491 26.6667 59.6284 26.6667 59.984V60.0348V60.6443C26.6667 60.9237 26.3619 61.0252 26.3111 61.0252H25.6508C25.6 61.0252 25.2699 61.0252 25.2699 60.5935V58.4856C25.2699 58.0538 25.6254 58.0538 25.6508 58.0538Z" fill="#E9E5DA"/>
<path d="M40.3301 59.6793L39.3142 55.6158L39.2126 55.2095C39.1364 54.8793 38.8062 54.6761 38.4761 54.7523L38.3745 54.7777C38.0443 54.8539 37.8412 55.1841 37.9174 55.5142L38.0189 55.9206C38.0189 55.946 39.0094 59.8825 39.0094 59.8825C39.0602 60.0857 39.1872 60.1872 39.4158 60.1618L40.0507 60.0857C40.2285 60.0603 40.3301 59.9841 40.3301 59.8063C40.3301 59.7555 40.3301 59.7047 40.3301 59.6793Z" fill="#E9E5DA"/>
<path d="M35.7841 52.6444H35.6825C35.3523 52.6444 35.0476 52.9238 35.0476 53.2793V53.3047V60.8222C35.0476 60.9746 34.9206 61.0762 34.7936 61.0508L34.565 61.0254C34.4635 61 34.3619 61.0254 34.2857 61.0508C34.1841 61.0762 34.1587 61.1523 34.1587 61.2793V61.3047C34.1587 61.4063 34.1841 61.4825 34.2095 61.5587C34.2349 61.6095 34.3111 61.6603 34.4381 61.6603L36.0127 61.8635C36.3936 61.8635 36.4444 61.6095 36.4444 61.3809V53.6349V53.3047V53.2793C36.3936 52.9238 36.1142 52.6444 35.7841 52.6444Z" fill="#E9E5DA"/>
<path d="M33.3714 54.9555L33.2698 54.9301C32.9397 54.8285 32.6095 55.0317 32.5079 55.3365L32.3809 55.7682L31.1365 59.8825C31.1111 59.9333 31.1111 59.9841 31.1111 60.0095C31.1111 60.1873 31.2127 60.2634 31.3904 60.2888L32 60.3904C32.2031 60.4158 32.3555 60.3396 32.4063 60.1365L33.727 55.7174C33.9047 55.3873 33.7016 55.0317 33.3714 54.9555Z" fill="#E9E5DA"/>
<path d="M15.4667 53.7111C15.4667 53.4826 15.3144 53.2032 14.9588 53.1778C14.9588 53.1778 8.86356 53.1524 8.73658 53.1524C8.73658 53.1524 8.35562 53.127 8.20324 53.1524C7.92388 53.1778 7.7207 53.4318 7.7207 53.6603V61.7365C7.7207 61.9651 7.89848 62.1175 8.10166 62.1175H8.73658C8.93975 62.1175 9.06673 62.0159 9.09213 61.8127C9.09213 61.7873 9.11753 61.7873 9.11753 61.7873H14.0445C14.0699 61.7873 14.0699 61.8127 14.0699 61.8127C14.0699 62.0413 14.2477 62.1937 14.4509 62.1937H15.035C15.2636 62.1937 15.4159 62.0159 15.4159 61.8127L15.4667 53.7111ZM14.0953 60.9746C14.0953 61.0508 14.0191 61.127 13.9429 61.127H9.24451C9.16832 61.127 9.09213 61.0508 9.09213 60.9746V58.3588C9.09213 58.0794 9.3207 57.8762 9.57467 57.8762H13.5874C13.8667 57.8762 14.0953 58.1048 14.0953 58.3841V60.9746ZM14.0953 57.0635C14.0953 57.1397 14.0191 57.2159 13.9429 57.2159H9.24451C9.16832 57.2159 9.09213 57.1397 9.09213 57.0635V54.3207C9.09213 54.0413 9.3207 53.8381 9.57467 53.8381H13.6128C13.8921 53.8381 14.0953 54.0667 14.0953 54.3207V57.0635Z" fill="#E9E5DA"/>
<path d="M55.9491 53.711H59.4792C59.7078 53.711 59.8348 53.6094 59.8348 53.3808C59.8348 53.1776 59.7078 53.0507 59.4792 53.0507H55.9491C55.7205 53.0507 55.5935 53.1522 55.5935 53.3808C55.5935 53.6094 55.7205 53.711 55.9491 53.711Z" fill="#E9E5DA"/>
<path d="M64.1014 56.1744H61.4348C61.4094 56.1744 61.3586 56.149 61.3586 56.0983L61.4094 55.184C61.4094 55.0062 61.511 54.8538 61.6633 54.7776L64.0253 53.4824C64.0253 53.4824 64.0253 53.4824 64.0506 53.4824C64.0506 53.4824 64.076 53.4824 64.076 53.457C64.203 53.3808 64.3046 53.2284 64.3046 53.1268C64.33 53.0506 64.3046 52.949 64.2792 52.8729C64.1776 52.6697 63.8983 52.6189 63.6697 52.7459C63.6443 52.7459 63.6443 52.7713 63.6189 52.7713C63.3395 52.9236 61.0792 54.1427 60.3173 54.5998C60.0633 54.7522 60.0887 55.0316 60.0633 55.1332L59.7078 61.6094C59.6824 61.8379 59.8094 61.9649 60.038 61.9649L60.6983 61.9903C60.9268 62.0157 61.0538 61.8887 61.0792 61.6602L61.3332 57.0887C61.3586 56.8856 61.5364 56.8094 61.638 56.8094C61.638 56.8094 61.8411 56.8094 62.0697 56.8094C62.2729 56.8094 62.3745 57.0379 62.3745 57.1141C62.3745 57.3173 62.3745 61.7617 62.3745 61.7617C62.3745 61.9903 62.5522 62.1681 62.7808 62.1681H63.3141C63.5427 62.1681 63.7205 61.9903 63.7205 61.7617V57.1903C63.6951 56.9109 63.8983 56.8348 63.9745 56.8094C64.0253 56.784 64.1776 56.784 64.1776 56.784C64.4062 56.784 64.5078 56.7078 64.5078 56.4792C64.4316 56.276 64.33 56.1744 64.1014 56.1744Z" fill="#E9E5DA"/>
<path d="M59.2505 55.2347L55.822 55.2601C55.5934 55.2601 55.4664 55.3617 55.4664 55.5903L55.1617 61.7109C55.1363 61.9395 55.2632 62.0665 55.4918 62.0665H56.1521C56.3807 62.0665 56.5077 61.9649 56.5077 61.7363L56.6347 59.0189C56.6347 58.9935 56.6601 58.9681 56.7109 58.9681H58.1839C58.2093 58.9681 58.2347 58.9935 58.2347 59.0189C58.2347 59.0951 58.2601 59.1459 58.3109 59.1966C58.3871 59.2474 58.4632 59.2728 58.5648 59.2728H59.149C59.3775 59.2728 59.5553 59.0951 59.5553 58.8665V55.5649C59.6061 55.3363 59.4791 55.2347 59.2505 55.2347ZM58.2347 58.2824C58.2347 58.3078 58.2093 58.3586 58.1585 58.3586H56.7109C56.6855 58.3586 56.6347 58.3332 56.6347 58.2824L56.7363 56.3522C56.7363 56.0728 56.9648 55.8697 57.2442 55.8697H57.7267C58.0061 55.8697 58.2347 56.0982 58.2347 56.3776V58.2824Z" fill="#E9E5DA"/>
<path d="M51.1747 57.8508H47.0096C46.9842 57.8508 46.9589 57.8507 46.9335 57.8254C46.9842 57.6222 46.9588 57.4444 46.8319 57.3174C46.6541 57.1396 46.3239 57.1396 46.0446 57.3174C45.9938 57.3428 45.9684 57.3682 45.943 57.3936L45.8922 57.4444L45.8668 57.4698L45.8414 57.4952L43.6319 59.6793C43.5557 59.7555 43.5049 59.8317 43.5049 59.9079C43.5049 60.0095 43.5811 60.0857 43.7081 60.1619L44.0128 60.2888C44.0636 60.3142 44.1398 60.3396 44.216 60.3396C44.3176 60.3396 44.4192 60.2888 44.4954 60.2127L46.1462 58.6127C46.2731 58.4857 46.6033 58.5111 46.6541 58.5111H49.0668C49.2192 58.5111 49.2954 58.7142 49.1684 58.7904L48.1779 59.5269C48.1525 59.5523 48.1017 59.5523 48.0763 59.5269L46.8065 58.8158C46.7303 58.765 46.6541 58.765 46.5779 58.765C46.4763 58.765 46.4001 58.7904 46.2985 58.8666L46.1969 58.9428C46.0954 59.019 46.0446 59.0952 46.0446 59.1714C46.0446 59.273 46.0954 59.3492 46.2223 59.4L47.2636 59.9841C47.3144 60.0095 47.3398 60.1111 47.2636 60.1365L45.4858 61.4571C45.3842 61.5333 45.3335 61.6095 45.3335 61.6857C45.3335 61.7873 45.3842 61.8634 45.5112 61.9142L45.7144 62.0412C45.7906 62.092 45.8668 62.1174 45.943 62.1174C46.0192 62.1174 46.1208 62.092 46.1969 62.0158L48.1779 60.5428C48.2033 60.5174 48.2541 60.5174 48.2795 60.5428L49.3208 61.1269C49.3969 61.1777 49.4731 61.1777 49.5493 61.1777C49.6509 61.1777 49.7271 61.1523 49.8287 61.0761L49.9303 61C50.0319 60.9238 50.0827 60.8476 50.0827 60.7714C50.0827 60.6698 50.0319 60.5936 49.9049 60.5428L49.0922 60.0857C49.0414 60.0603 49.016 59.9587 49.0922 59.9333L51.3525 58.2571C51.4541 58.1301 51.3779 57.8508 51.1747 57.8508Z" fill="#E9E5DA"/>
<path d="M52.0383 56.9873L48.6605 55.7174C48.5843 55.692 48.5335 55.6412 48.5335 55.565V54.3968C48.5335 54.219 48.6859 54.0666 48.8637 54.0666H51.9875C52.2161 54.0666 52.3431 53.965 52.3431 53.7619C52.3431 53.5587 52.2161 53.4571 51.9875 53.4571H48.6351C48.5843 53.4571 48.5589 53.4317 48.5589 53.4063C48.5589 52.9746 48.2542 52.6444 47.8732 52.6444C47.5177 52.6444 47.2129 52.9746 47.1875 53.3809C47.1875 53.4317 47.1367 53.4571 47.0859 53.4571H43.5304C43.3018 53.4571 43.1748 53.5587 43.1748 53.7619C43.1748 53.965 43.3018 54.0666 43.5304 54.0666H46.8574C47.0351 54.0666 47.1875 54.219 47.1875 54.3714C47.1875 54.3714 47.1621 55.1333 47.1367 55.5143C47.1367 55.6158 47.0605 55.7174 46.9335 55.7682L43.3526 56.9873C43.2002 57.0381 43.124 57.1143 43.124 57.2412C43.124 57.292 43.1494 57.3682 43.2002 57.4444V57.4698C43.2764 57.5714 43.4034 57.6476 43.5304 57.6476H43.5812C43.6066 57.6476 43.632 57.6476 43.6574 57.6222L47.0097 56.4793C47.0605 56.4539 47.1367 56.5047 47.1367 56.5555V57.3428C47.1367 57.5968 47.3399 57.7746 47.5939 57.7746H48.051C48.305 57.7746 48.5081 57.5714 48.5081 57.3428V56.5809C48.5081 56.5047 48.5843 56.4793 48.6351 56.5047L51.632 57.6222C51.7082 57.6476 51.7589 57.6476 51.8097 57.6476C51.9367 57.6476 52.0383 57.5968 52.1145 57.4952L52.1653 57.4444C52.2161 57.3682 52.2415 57.3174 52.2415 57.2666C52.2669 57.1396 52.1907 57.0635 52.0383 56.9873Z" fill="#E9E5DA"/>
<path d="M50.9461 54.4221C50.8191 54.2443 50.5397 54.2189 50.2603 54.3205H50.2349C50.1588 54.3713 50.0572 54.4221 50.0064 54.4729H49.981C49.9556 54.4983 49.9048 54.5237 49.8794 54.5745L49.0413 55.3618C48.9651 55.438 48.9143 55.5142 48.9143 55.5904C48.9143 55.692 48.9905 55.7681 49.1175 55.8443L49.3968 55.9713C49.473 56.0221 49.5492 56.0221 49.6 56.0221C49.7016 56.0221 49.7778 55.9713 49.8794 55.8951L49.981 55.7935C50.0826 55.692 50.2349 55.692 50.3365 55.7681L51.2254 56.4285C51.3016 56.4793 51.4032 56.53 51.4794 56.53C51.5556 56.53 51.6318 56.5047 51.708 56.4539L51.9111 56.3269C52.0127 56.2507 52.0889 56.1745 52.0889 56.0983C52.0889 56.0221 52.0381 55.9459 51.9365 55.8697L50.9207 55.1078C50.8953 55.0824 50.8953 55.057 50.8953 55.057C51.0222 54.8285 51.073 54.5745 50.9461 54.4221Z" fill="#E9E5DA"/>
<path d="M45.3081 54.2697C45.0796 54.0666 44.6986 54.1174 44.4192 54.4221C44.3939 54.4475 44.3685 54.4983 44.3431 54.5237L43.251 55.9967C43.2002 56.0729 43.1748 56.1491 43.1748 56.1999C43.1748 56.3015 43.251 56.4031 43.4034 56.4539L43.8351 56.6062C43.8859 56.6316 43.9367 56.6316 43.9875 56.6316C44.1145 56.6316 44.2161 56.5808 44.2923 56.4539L44.6986 55.9205C44.8002 55.7935 44.978 55.7427 45.105 55.8189L45.7399 56.0729C45.7907 56.0983 45.8669 56.1237 45.9431 56.1237C46.0446 56.1237 46.1462 56.0729 46.2224 55.9713L46.2986 55.8951C46.3748 55.8189 46.4002 55.7427 46.4002 55.692C46.4002 55.5904 46.324 55.5142 46.1716 55.438L45.4605 55.1332C45.4097 55.1078 45.3843 55.057 45.4097 55.0062C45.5367 54.7523 45.5113 54.4475 45.3081 54.2697Z" fill="#E9E5DA"/>
</g>
</svg>
