<svg width="56" height="56" viewBox="0 0 56 56" fill="none" xmlns="http://www.w3.org/2000/svg">
<circle cx="28" cy="28" r="27" stroke="#60222B" stroke-width="2"/>
<path fill-rule="evenodd" clip-rule="evenodd" d="M20.5978 29.0097C20.215 28.6269 20 28.1077 20 27.5663C20 27.0249 20.215 26.5057 20.5978 26.1228L32.1475 14.5731C32.5325 14.2012 33.0483 13.9954 33.5836 14.0001C34.1189 14.0047 34.631 14.2194 35.0095 14.598C35.3881 14.9765 35.6028 15.4886 35.6074 16.0239C35.6121 16.5592 35.4063 17.075 35.0344 17.46L24.9281 27.5663L35.0344 37.6725C35.4063 38.0576 35.6121 38.5733 35.6074 39.1086C35.6028 39.644 35.3881 40.156 35.0095 40.5346C34.631 40.9131 34.1189 41.1278 33.5836 41.1325C33.0483 41.1371 32.5325 40.9314 32.1475 40.5594L20.5978 29.0097Z" fill="#60222B"/>
</svg>
