<svg width="56" height="56" viewBox="0 0 56 56" fill="none" xmlns="http://www.w3.org/2000/svg">
<circle cx="28" cy="28" r="27" transform="matrix(-1 0 0 1 56 0)" stroke="#60222B" stroke-width="2"/>
<path fill-rule="evenodd" clip-rule="evenodd" d="M35.4022 29.0097C35.785 28.6269 36 28.1077 36 27.5663C36 27.0249 35.785 26.5057 35.4022 26.1228L23.8525 14.5731C23.4675 14.2012 22.9517 13.9954 22.4164 14.0001C21.8811 14.0047 21.369 14.2194 20.9905 14.598C20.6119 14.9765 20.3972 15.4886 20.3926 16.0239C20.3879 16.5592 20.5937 17.075 20.9656 17.46L31.0719 27.5663L20.9656 37.6725C20.5937 38.0576 20.3879 38.5733 20.3926 39.1086C20.3972 39.644 20.6119 40.156 20.9905 40.5346C21.369 40.9131 21.8811 41.1278 22.4164 41.1325C22.9517 41.1371 23.4675 40.9314 23.8525 40.5594L35.4022 29.0097Z" fill="#60222B"/>
</svg>
